/* XPM */
static char * triplane_classic_xpm[] = {
"32 32 18 1",
" 	c None",
".	c #FF0000",
"+	c #9B0000",
"@	c #BF0000",
"#	c #730000",
"$	c #5CBCFC",
"%	c #FFBF9F",
"&	c #FF5F5F",
"*	c #7F7F7F",
"=	c #9B9B9B",
"-	c #FFB080",
";	c #F0955F",
">	c #D70000",
",	c #CB0000",
"'	c #DF8A55",
")	c #BF7A4A",
"!	c #232323",
"~	c #D3D3D3",
"                                ",
"                                ",
"                                ",
"                                ",
"                                ",
"                                ",
"                                ",
"                                ",
"                                ",
"                                ",
"                                ",
"                                ",
"                                ",
"       ...       +++++@         ",
"      .....       #  #$  %      ",
"      ....&&&&&&&&#..#*==-      ",
"       +++.......+++++@..;      ",
"          >>>,,,,,#,,#,,,'      ",
"                 +++++@  )      ",
"                    !           ",
"                   !~!          ",
"                    !           ",
"                                ",
"                                ",
"                                ",
"                                ",
"                                ",
"                                ",
"                                ",
"                                ",
"                                ",
"                                "};
